<svg width="36" height="34" viewBox="0 0 36 34" fill="black" xmlns="http://www.w3.org/2000/svg">
<g clip-path="url(#clip0)">
<path d="M14.0361 0.0255547C13.1389 0.103973 12.2671 0.35323 11.4289 0.764927C10.1239 1.40628 9.06925 2.3613 8.28738 3.6076C7.96675 4.12292 7.62644 4.84829 7.4605 5.37761C7.4155 5.52325 7.40144 5.54005 7.3255 5.55125C6.79394 5.62687 6.52957 5.70249 6.2005 5.86493C5.91082 6.01056 5.69425 6.173 5.43832 6.43906C4.88425 7.016 4.54675 7.76938 4.38082 8.81682C4.31894 9.19211 4.32738 10.4552 4.39488 10.8473C4.65082 12.3821 5.30894 13.4211 6.34675 13.9252C6.48738 13.9924 6.68988 14.0681 6.80238 14.0961C6.91207 14.1241 6.99925 14.1493 6.99363 14.1521C6.988 14.1577 6.78832 14.3033 6.54925 14.4798C4.40332 16.0397 2.02675 18.1682 0.991753 19.4593C0.207065 20.4368 -0.11356 21.2153 0.035503 21.7699C0.131128 22.1256 0.412378 22.4756 0.71894 22.6185C0.870816 22.6885 0.907378 22.6941 1.24769 22.6913C1.58519 22.6913 1.633 22.6829 1.8805 22.5989C2.53019 22.372 3.31769 21.9043 4.22894 21.1985C4.97988 20.6188 5.88832 19.8234 6.68425 19.056L7.02738 18.7228V22.2852V25.8504L6.74332 26.1893C5.16832 28.0826 4.0855 29.6033 3.52863 30.7152C3.19394 31.3789 3.03644 31.8662 3.01394 32.3115C2.98582 32.8045 3.08144 33.0621 3.39082 33.3506C3.60457 33.5494 3.89988 33.7007 4.198 33.7595C5.32582 33.9891 6.9205 32.7625 9.058 30.0178C9.98332 28.8303 10.9171 27.4188 11.4993 26.3293L11.6821 25.9877L14.8068 25.9849H17.9343L18.1789 26.4386C19.6302 29.116 22.0433 32.1715 23.593 33.2974C24.0205 33.6083 24.4536 33.8351 24.8024 33.9275C25.0555 33.9975 25.4971 33.9975 25.7024 33.9275C26.0455 33.8127 26.3886 33.569 26.5405 33.331C26.9343 32.712 26.6924 31.6814 25.798 30.1943C25.1624 29.1384 24.0008 27.5812 22.8111 26.1865L22.468 25.7832L22.4736 25.2343L22.4821 24.6854L22.6789 24.6517C22.7886 24.6321 23.4271 24.5257 24.0993 24.4165C28.3968 23.7191 29.8255 23.3662 31.3414 22.6241C33.6955 21.4674 35.5293 19.0028 35.9286 16.457C35.9905 16.0649 35.9989 15.1463 35.9427 14.7542C35.8921 14.3929 35.743 13.8132 35.6136 13.4911C35.3014 12.6985 34.8964 12.0936 33.943 10.9873C33.3608 10.3124 33.1358 10.0183 32.9952 9.74384C32.8602 9.47778 32.8518 9.28173 32.9699 8.94565C33.2849 8.03824 34.1399 6.85076 35.2649 5.7613C35.5293 5.50644 35.5883 5.43363 35.6783 5.24318C35.7796 5.03593 35.7852 5.00793 35.7852 4.75587C35.7824 4.32737 35.6249 4.00809 35.3014 3.77564C35.0652 3.6076 34.8346 3.54318 34.5336 3.55718C34.3143 3.56839 34.258 3.58239 34.0668 3.67481C33.8755 3.77003 33.7911 3.84005 33.4114 4.22094C32.0108 5.62127 31.0968 6.92638 30.7143 8.07465C30.5286 8.62638 30.4977 8.81962 30.5005 9.36295C30.5033 9.78025 30.5118 9.87267 30.5736 10.1079C30.7114 10.6176 30.9646 11.1078 31.3583 11.6315C31.4624 11.7687 31.7746 12.1496 32.053 12.4745C32.9333 13.5079 33.2118 13.9224 33.4199 14.4966C33.5689 14.9111 33.6196 15.5608 33.5464 16.0873C33.358 17.4345 32.4693 18.8796 31.2036 19.8906C30.478 20.4676 29.5049 20.8765 27.9974 21.2377C27.5361 21.3498 26.5714 21.5486 25.8852 21.6746C24.9458 21.8455 22.4961 22.2516 22.4821 22.2376C22.468 22.2208 22.4624 17.7509 22.4764 17.7509C22.4821 17.7509 22.7352 17.8013 23.0361 17.8601C25.7474 18.4063 27.868 18.6051 29.1139 18.4343C30.2783 18.2746 30.8633 17.7481 30.8155 16.9107C30.7761 16.2246 30.0983 15.6924 28.6696 15.2275C27.2886 14.7766 24.6955 14.3341 22.8618 14.2361C22.4286 14.2137 22.2993 14.1521 22.5327 14.0849C23.6014 13.7684 24.3974 12.8134 24.7574 11.4214C24.9008 10.8613 24.9289 10.5952 24.9289 9.78305C24.9289 9.11649 24.9205 8.98486 24.8614 8.66279C24.5689 7.0272 23.7308 5.97135 22.4793 5.65208C22.3639 5.62127 22.2093 5.59046 22.1361 5.57926L22.0011 5.56246L21.883 5.20677C21.5933 4.35817 21.118 3.50957 20.5189 2.7674C20.2686 2.45933 19.6527 1.85719 19.3461 1.61913C18.1339 0.686508 16.7868 0.151585 15.3243 0.0227547C14.953 -0.00805283 14.4158 -0.00805283 14.0361 0.0255547Z" fill="white"/>
</g>
<defs>
<clipPath id="clip0">
<rect width="36" height="34" fill="white"/>
</clipPath>
</defs>
</svg>
